<svg width="20" height="20" viewBox="0 0 20 20" fill="none" xmlns="http://www.w3.org/2000/svg">
<path d="M17.083 7.91675C18.333 7.91675 18.333 8.33341 18.333 9.16675V10.8334C18.333 11.6667 18.333 12.0834 17.083 12.0834" stroke="#141824" stroke-width="1.25" stroke-linecap="round" stroke-linejoin="round"/>
<path d="M8.33301 6.66675L6.75801 8.75008C6.43301 9.30841 6.83301 10.0001 7.47468 10.0001H9.39134C10.033 10.0001 10.433 10.6917 10.1163 11.2501L8.33301 13.3334" stroke="#141824" stroke-width="1.25" stroke-linecap="round" stroke-linejoin="round"/>
<path d="M5.83366 15.8334C2.50033 15.8334 1.66699 15.0001 1.66699 11.6667V8.33341C1.66699 5.00008 2.50033 4.16675 5.83366 4.16675" stroke="#141824" stroke-width="1.25" stroke-linecap="round" stroke-linejoin="round"/>
<path d="M10.833 4.16675C14.1663 4.16675 14.9997 5.00008 14.9997 8.33341V11.6667C14.9997 15.0001 14.1663 15.8334 10.833 15.8334" stroke="#141824" stroke-width="1.25" stroke-linecap="round" stroke-linejoin="round"/>
</svg>
