<svg width="28" height="11" viewBox="0 0 28 11" fill="none" xmlns="http://www.w3.org/2000/svg">
<path d="M14 0C16.4583 0 18.8802 0.494792 21.2656 1.48438C23.651 2.47396 25.7708 3.95833 27.625 5.9375C27.875 6.1875 28 6.47917 28 6.8125C28 7.14583 27.875 7.4375 27.625 7.6875L24.75 10.5C24.5208 10.7292 24.2552 10.8542 23.9531 10.875C23.651 10.8958 23.375 10.8125 23.125 10.625L19.5 7.875C19.3333 7.75 19.2083 7.60417 19.125 7.4375C19.0417 7.27083 19 7.08333 19 6.875V3.3125C18.2083 3.0625 17.3958 2.86458 16.5625 2.71875C15.7292 2.57292 14.875 2.5 14 2.5C13.125 2.5 12.2708 2.57292 11.4375 2.71875C10.6042 2.86458 9.79167 3.0625 9 3.3125V6.875C9 7.08333 8.95833 7.27083 8.875 7.4375C8.79167 7.60417 8.66667 7.75 8.5 7.875L4.875 10.625C4.625 10.8125 4.34896 10.8958 4.04688 10.875C3.74479 10.8542 3.47917 10.7292 3.25 10.5L0.375 7.6875C0.125 7.4375 0 7.14583 0 6.8125C0 6.47917 0.125 6.1875 0.375 5.9375C2.20833 3.95833 4.32292 2.47396 6.71875 1.48438C9.11458 0.494792 11.5417 0 14 0Z" fill="white"/>
</svg>
