<svg width="20" height="21" viewBox="0 0 20 21" fill="none" xmlns="http://www.w3.org/2000/svg">
<path d="M16.35 12.95L14.9 11.5C15.1333 11.1167 15.3083 10.7167 15.425 10.3C15.5417 9.88333 15.6 9.45 15.6 9H17.6C17.6 9.73333 17.4917 10.4292 17.275 11.0875C17.0583 11.7458 16.75 12.3667 16.35 12.95ZM13.4 9.95L11.6 8.15V3C11.6 2.71667 11.5042 2.47917 11.3125 2.2875C11.1208 2.09583 10.8833 2 10.6 2C10.3167 2 10.0792 2.09583 9.8875 2.2875C9.69583 2.47917 9.6 2.71667 9.6 3V6.15L7.6 4.15V3C7.6 2.16667 7.89167 1.45833 8.475 0.875C9.05833 0.291667 9.76667 0 10.6 0C11.4333 0 12.1417 0.291667 12.725 0.875C13.3083 1.45833 13.6 2.16667 13.6 3V9C13.6 9.18333 13.5792 9.35 13.5375 9.5C13.4958 9.65 13.45 9.8 13.4 9.95ZM9.6 19V15.925C7.86667 15.6917 6.43333 14.9167 5.3 13.6C4.16667 12.2833 3.6 10.75 3.6 9H5.6C5.6 10.3833 6.07917 11.5625 7.0375 12.5375C7.99583 13.5125 9.18333 14 10.6 14C11.1667 14 11.7042 13.9125 12.2125 13.7375C12.7208 13.5625 13.1833 13.3167 13.6 13L15.025 14.425C14.5417 14.8083 14.0125 15.1333 13.4375 15.4C12.8625 15.6667 12.25 15.8417 11.6 15.925V19H9.6ZM18.4 20.6L0 2.2L1.4 0.8L19.8 19.2L18.4 20.6Z" fill="white"/>
</svg>
