<svg width="20" height="20" viewBox="0 0 20 20" fill="none" xmlns="http://www.w3.org/2000/svg">
<path d="M13.9166 15.8169H6.08325C5.73325 15.8169 5.34159 15.5419 5.22492 15.2086L1.77492 5.55859C1.28326 4.17525 1.85826 3.75025 3.04159 4.60025L6.29159 6.92525C6.83325 7.30025 7.44992 7.10859 7.68325 6.50025L9.14992 2.59192C9.61659 1.34192 10.3916 1.34192 10.8583 2.59192L12.3249 6.50025C12.5583 7.10859 13.1749 7.30025 13.7083 6.92525L16.7583 4.75025C18.0583 3.81692 18.6833 4.29192 18.1499 5.80025L14.7833 15.2253C14.6583 15.5419 14.2666 15.8169 13.9166 15.8169Z" stroke="white" stroke-width="1.25" stroke-linecap="round" stroke-linejoin="round"/>
<path d="M5.41675 18.3334H14.5834" stroke="white" stroke-width="1.25" stroke-linecap="round" stroke-linejoin="round"/>
<path d="M7.91675 11.6666H12.0834" stroke="white" stroke-width="1.25" stroke-linecap="round" stroke-linejoin="round"/>
</svg>
