<svg width="20" height="20" viewBox="0 0 20 20" fill="none" xmlns="http://www.w3.org/2000/svg">
<path d="M10 1.66663V7.49996L11.6667 5.83329" stroke="#141824" stroke-width="1.25" stroke-linecap="round" stroke-linejoin="round"/>
<path d="M10 7.50004L8.33337 5.83337" stroke="#141824" stroke-width="1.25" stroke-linecap="round" stroke-linejoin="round"/>
<path d="M1.65002 10.8334H5.32502C5.64169 10.8334 5.92502 11.0084 6.06669 11.2917L7.04169 13.2417C7.32502 13.8084 7.90002 14.1667 8.53336 14.1667H11.475C12.1084 14.1667 12.6834 13.8084 12.9667 13.2417L13.9417 11.2917C14.0834 11.0084 14.375 10.8334 14.6834 10.8334H18.3167" stroke="#141824" stroke-width="1.25" stroke-linecap="round" stroke-linejoin="round"/>
<path d="M5.83329 3.44165C2.88329 3.87498 1.66663 5.60832 1.66663 9.16665V12.5C1.66663 16.6666 3.33329 18.3333 7.49996 18.3333H12.5C16.6666 18.3333 18.3333 16.6666 18.3333 12.5V9.16665C18.3333 5.60832 17.1166 3.87498 14.1666 3.44165" stroke="#141824" stroke-width="1.25" stroke-linecap="round" stroke-linejoin="round"/>
</svg>
