<svg width="20" height="20" viewBox="0 0 20 20" fill="none" xmlns="http://www.w3.org/2000/svg">
<path d="M7.5 14.7915C7.41667 14.7915 7.34167 14.7748 7.25833 14.7415C7.025 14.6498 6.875 14.4165 6.875 14.1665V9.1665C6.875 8.82483 7.15833 8.5415 7.5 8.5415C7.84167 8.5415 8.125 8.82483 8.125 9.1665V12.6581L8.725 12.0581C8.96667 11.8165 9.36667 11.8165 9.60833 12.0581C9.85 12.2998 9.85 12.6998 9.60833 12.9415L7.94167 14.6081C7.825 14.7248 7.65833 14.7915 7.5 14.7915Z" fill="white"/>
<path d="M7.50003 14.7915C7.3417 14.7915 7.18337 14.7332 7.05837 14.6082L5.3917 12.9415C5.15003 12.6999 5.15003 12.2999 5.3917 12.0582C5.63337 11.8165 6.03337 11.8165 6.27503 12.0582L7.9417 13.7249C8.18337 13.9665 8.18337 14.3665 7.9417 14.6082C7.8167 14.7332 7.65837 14.7915 7.50003 14.7915Z" fill="white"/>
<path d="M12.4998 18.9583H7.49984C2.97484 18.9583 1.0415 17.025 1.0415 12.5V7.50003C1.0415 2.97507 2.97484 1.04175 7.49984 1.04175H11.6665C12.0082 1.04175 12.2915 1.32508 12.2915 1.66674C12.2915 2.00841 12.0082 2.29174 11.6665 2.29174H7.49984C3.65817 2.29174 2.2915 3.65839 2.2915 7.50003V12.5C2.2915 16.3416 3.65817 17.7083 7.49984 17.7083H12.4998C16.3415 17.7083 17.7082 16.3416 17.7082 12.5V8.33336C17.7082 7.99169 17.9915 7.70836 18.3332 7.70836C18.6748 7.70836 18.9582 7.99169 18.9582 8.33336V12.5C18.9582 17.025 17.0248 18.9583 12.4998 18.9583Z" fill="white"/>
<path d="M18.3332 8.95834H14.9998C12.1498 8.95834 11.0415 7.85002 11.0415 5.00004V1.66673C11.0415 1.41674 11.1915 1.1834 11.4248 1.09174C11.6582 0.991739 11.9248 1.05007 12.1082 1.22507L18.7748 7.89168C18.9498 8.06668 19.0082 8.34168 18.9082 8.57501C18.8082 8.80834 18.5832 8.95834 18.3332 8.95834ZM12.2915 3.17505V5.00004C12.2915 7.15002 12.8498 7.70835 14.9998 7.70835H16.8248L12.2915 3.17505Z" fill="white"/>
</svg>
