<svg width="23" height="23" viewBox="0 0 23 23" fill="none" xmlns="http://www.w3.org/2000/svg">
<path d="M14.8717 11.4546C14.8717 13.3446 13.3444 14.8719 11.4544 14.8719C9.56438 14.8719 8.03711 13.3446 8.03711 11.4546C8.03711 9.56463 9.56438 8.03735 11.4544 8.03735C13.3444 8.03735 14.8717 9.56463 14.8717 11.4546Z" stroke="white" stroke-width="1.43182" stroke-linecap="round" stroke-linejoin="round"/>
<path d="M11.4545 19.3492C14.824 19.3492 17.9645 17.3638 20.1504 13.9274C21.0095 12.5815 21.0095 10.3192 20.1504 8.97333C17.9645 5.53697 14.824 3.55151 11.4545 3.55151C8.08494 3.55151 4.94448 5.53697 2.75858 8.97333C1.89949 10.3192 1.89949 12.5815 2.75858 13.9274C4.94448 17.3638 8.08494 19.3492 11.4545 19.3492Z" stroke="white" stroke-width="1.43182" stroke-linecap="round" stroke-linejoin="round"/>
</svg>
