<svg width="23" height="23" viewBox="0 0 23 23" fill="none" xmlns="http://www.w3.org/2000/svg">
<path d="M16.59 9.90823V12.9914C16.59 15.5591 15.5591 16.59 12.9914 16.59H9.90821C7.34048 16.59 6.30957 15.5591 6.30957 12.9914V9.90823C6.30957 7.3405 7.34048 6.30957 9.90821 6.30957H12.9914C15.5687 6.31912 16.59 7.3405 16.59 9.90823Z" stroke="white" stroke-width="1.43182" stroke-linecap="round" stroke-linejoin="round"/>
<path d="M20.9999 5.50768V8.59088C20.9999 11.1586 19.969 12.1895 17.4013 12.1895H16.5899V9.91771C16.5899 7.34998 15.559 6.31905 12.9913 6.31905H10.7195V5.50768C10.7195 2.93996 11.7504 1.90906 14.3181 1.90906H17.4013C19.969 1.90906 20.9999 2.93996 20.9999 5.50768Z" stroke="white" stroke-width="1.43182" stroke-linecap="round" stroke-linejoin="round"/>
<path d="M1.90918 17.4014V14.3182C1.90918 11.7505 2.94009 10.7196 5.50782 10.7196H6.31918V12.9914C6.31918 15.5591 7.35009 16.5901 9.91782 16.5901H12.1896V17.4014C12.1896 19.9691 11.1587 21 8.591 21H5.50782C2.94009 21 1.90918 19.9691 1.90918 17.4014Z" stroke="white" stroke-width="1.43182" stroke-linecap="round" stroke-linejoin="round"/>
</svg>
