<svg width="20" height="20" viewBox="0 0 20 20" fill="none" xmlns="http://www.w3.org/2000/svg">
<path d="M12.7001 18.5587H12.5918C8.89176 18.5587 7.10843 17.1003 6.80009 13.8337C6.76676 13.492 7.01676 13.1837 7.36676 13.1504C7.70009 13.117 8.01676 13.3754 8.05009 13.717C8.29176 16.3337 9.52509 17.3087 12.6001 17.3087H12.7084C16.1001 17.3087 17.3001 16.1087 17.3001 12.717V7.28376C17.3001 3.89212 16.1001 2.69213 12.7084 2.69213H12.6001C9.50843 2.69213 8.27509 3.68379 8.05009 6.35043C8.00843 6.6921 7.71676 6.95043 7.36676 6.91709C7.01676 6.8921 6.76676 6.58376 6.79176 6.2421C7.07509 2.92546 8.86676 1.44214 12.5918 1.44214H12.7001C16.7918 1.44214 18.5418 3.19212 18.5418 7.28376V12.717C18.5418 16.8087 16.7918 18.5587 12.7001 18.5587Z" fill="white"/>
<path d="M12.4999 10.625H3.0166C2.67493 10.625 2.3916 10.3417 2.3916 9.99999C2.3916 9.65833 2.67493 9.375 3.0166 9.375H12.4999C12.8416 9.375 13.1249 9.65833 13.1249 9.99999C13.1249 10.3417 12.8416 10.625 12.4999 10.625Z" fill="white"/>
<path d="M4.87503 13.4166C4.7167 13.4166 4.55837 13.3583 4.43337 13.2333L1.6417 10.4417C1.40003 10.2 1.40003 9.80001 1.6417 9.55834L4.43337 6.7667C4.67503 6.52503 5.07503 6.52503 5.3167 6.7667C5.55837 7.00836 5.55837 7.40836 5.3167 7.65002L2.9667 10L5.3167 12.35C5.55837 12.5917 5.55837 12.9916 5.3167 13.2333C5.20003 13.3583 5.03337 13.4166 4.87503 13.4166Z" fill="white"/>
</svg>
