<svg width="23" height="23" viewBox="0 0 23 23" fill="none" xmlns="http://www.w3.org/2000/svg">
<path d="M16.2274 17.5921H12.4092L8.16144 20.4175C7.53144 20.8375 6.68191 20.3889 6.68191 19.6253V17.5921C3.81827 17.5921 1.90918 15.683 1.90918 12.8194V7.09206C1.90918 4.22843 3.81827 2.31934 6.68191 2.31934H16.2274C19.091 2.31934 21.0001 4.22843 21.0001 7.09206V12.8194C21.0001 15.683 19.091 17.5921 16.2274 17.5921Z" stroke="white" stroke-width="1.43182" stroke-miterlimit="10" stroke-linecap="round" stroke-linejoin="round"/>
<path d="M11.4546 10.8431V10.6426C11.4546 9.99355 11.8556 9.6499 12.2565 9.37308C12.6478 9.10581 13.0392 8.76219 13.0392 8.13219C13.0392 7.254 12.3328 6.54761 11.4546 6.54761C10.5765 6.54761 9.87012 7.254 9.87012 8.13219" stroke="white" stroke-width="1.43182" stroke-linecap="round" stroke-linejoin="round"/>
<path d="M11.4503 13.125H11.4589" stroke="white" stroke-width="1.43182" stroke-linecap="round" stroke-linejoin="round"/>
</svg>
