<svg width="23" height="23" viewBox="0 0 23 23" fill="none" xmlns="http://www.w3.org/2000/svg">
<path d="M11.4737 2.77783C8.31415 2.77783 5.74643 5.34556 5.74643 8.5051V11.2637C5.74643 11.846 5.49824 12.7337 5.20233 13.2301L4.10461 15.0533C3.42688 16.1796 3.89461 17.4301 5.13552 17.8501C9.24961 19.2246 13.6882 19.2246 17.8023 17.8501C18.9573 17.4683 19.4632 16.1033 18.8332 15.0533L17.7355 13.2301C17.4492 12.7337 17.201 11.846 17.201 11.2637V8.5051C17.201 5.3551 14.6237 2.77783 11.4737 2.77783Z" stroke="white" stroke-width="1.43182" stroke-miterlimit="10" stroke-linecap="round"/>
<path d="M13.2393 3.05502C12.9434 2.96911 12.638 2.90229 12.323 2.86411C11.4066 2.74957 10.5284 2.81639 9.70752 3.05502C9.98434 2.34866 10.6716 1.85229 11.4734 1.85229C12.2752 1.85229 12.9625 2.34866 13.2393 3.05502Z" stroke="white" stroke-width="1.43182" stroke-miterlimit="10" stroke-linecap="round" stroke-linejoin="round"/>
<path d="M14.3371 18.1931C14.3371 19.7681 13.0485 21.0568 11.4735 21.0568C10.6908 21.0568 9.96532 20.7322 9.44986 20.2168C8.93441 19.7013 8.60986 18.9758 8.60986 18.1931" stroke="white" stroke-width="1.43182" stroke-miterlimit="10"/>
</svg>
