<svg width="23" height="23" viewBox="0 0 23 23" fill="none" xmlns="http://www.w3.org/2000/svg">
<path d="M11.4545 14.3182C13.036 14.3182 14.3181 13.0361 14.3181 11.4546C14.3181 9.87304 13.036 8.59094 11.4545 8.59094C9.87291 8.59094 8.59082 9.87304 8.59082 11.4546C8.59082 13.0361 9.87291 14.3182 11.4545 14.3182Z" stroke="white" stroke-width="1.43182" stroke-miterlimit="10" stroke-linecap="round" stroke-linejoin="round"/>
<path d="M1.90918 12.2941V10.6141C1.90918 9.62135 2.72054 8.80044 3.72282 8.80044C5.45054 8.80044 6.15691 7.57862 5.28827 6.07998C4.79191 5.22089 5.08782 4.10407 5.95645 3.60771L7.60782 2.66271C8.36191 2.21407 9.33554 2.48135 9.78418 3.23544L9.88918 3.4168C10.7483 4.91544 12.161 4.91544 13.0296 3.4168L13.1346 3.23544C13.5833 2.48135 14.5569 2.21407 15.311 2.66271L16.9624 3.60771C17.831 4.10407 18.1269 5.22089 17.6305 6.07998C16.7619 7.57862 17.4683 8.80044 19.196 8.80044C20.1887 8.80044 21.0096 9.6118 21.0096 10.6141V12.2941C21.0096 13.2868 20.1983 14.1077 19.196 14.1077C17.4683 14.1077 16.7619 15.3295 17.6305 16.8282C18.1269 17.6968 17.831 18.8041 16.9624 19.3004L15.311 20.2454C14.5569 20.6941 13.5833 20.4268 13.1346 19.6727L13.0296 19.4913C12.1705 17.9927 10.7578 17.9927 9.88918 19.4913L9.78418 19.6727C9.33554 20.4268 8.36191 20.6941 7.60782 20.2454L5.95645 19.3004C5.08782 18.8041 4.79191 17.6873 5.28827 16.8282C6.15691 15.3295 5.45054 14.1077 3.72282 14.1077C2.72054 14.1077 1.90918 13.2868 1.90918 12.2941Z" stroke="white" stroke-width="1.43182" stroke-miterlimit="10" stroke-linecap="round" stroke-linejoin="round"/>
</svg>
