<svg width="23" height="23" viewBox="0 0 23 23" fill="none" xmlns="http://www.w3.org/2000/svg">
<path d="M10.0131 2.12916L5.24988 3.9237C4.15216 4.33416 3.25488 5.63234 3.25488 6.79689V13.8892C3.25488 15.0155 3.99943 16.4951 4.90625 17.1728L9.01079 20.2369C10.3567 21.2487 12.5712 21.2487 13.9172 20.2369L18.0217 17.1728C18.9285 16.4951 19.6731 15.0155 19.6731 13.8892V6.79689C19.6731 5.62279 18.7758 4.32461 17.6781 3.91416L12.9149 2.12916C12.1035 1.83325 10.8053 1.83325 10.0131 2.12916Z" stroke="white" stroke-width="1.43182" stroke-linecap="round" stroke-linejoin="round"/>
<path d="M11.4545 11.9317C12.5089 11.9317 13.3636 11.077 13.3636 10.0226C13.3636 8.96825 12.5089 8.11353 11.4545 8.11353C10.4001 8.11353 9.54541 8.96825 9.54541 10.0226C9.54541 11.077 10.4001 11.9317 11.4545 11.9317Z" stroke="white" stroke-width="1.43182" stroke-miterlimit="10" stroke-linecap="round" stroke-linejoin="round"/>
<path d="M11.4546 11.9319V14.7955" stroke="white" stroke-width="1.43182" stroke-miterlimit="10" stroke-linecap="round" stroke-linejoin="round"/>
</svg>
