<svg width="20" height="20" viewBox="0 0 20 20" fill="none" xmlns="http://www.w3.org/2000/svg">
<path d="M17.5 4.9838C14.725 4.7088 11.9333 4.56714 9.15 4.56714C7.5 4.56714 5.85 4.65047 4.2 4.81714L2.5 4.9838" fill="white"/>
<path d="M17.5 4.9838C14.725 4.7088 11.9333 4.56714 9.15 4.56714C7.5 4.56714 5.85 4.65047 4.2 4.81714L2.5 4.9838" stroke="white" stroke-width="1.5" stroke-linecap="round" stroke-linejoin="round"/>
<path d="M7.08325 4.14173L7.26659 3.05007C7.39992 2.25841 7.49992 1.66675 8.90825 1.66675H11.0916C12.4999 1.66675 12.6083 2.29174 12.7333 3.0584L12.9166 4.14173" fill="white"/>
<path d="M7.08325 4.14173L7.26659 3.05007C7.39992 2.25841 7.49992 1.66675 8.90825 1.66675H11.0916C12.4999 1.66675 12.6083 2.29174 12.7333 3.0584L12.9166 4.14173" stroke="white" stroke-width="1.5" stroke-linecap="round" stroke-linejoin="round"/>
<path d="M15.7084 7.61621L15.1667 16.0078C15.0751 17.3161 15.0001 18.3328 12.6751 18.3328H7.32508C5.00008 18.3328 4.92508 17.3161 4.83341 16.0078L4.29175 7.61621" fill="white"/>
<path d="M15.7084 7.61621L15.1667 16.0078C15.0751 17.3161 15.0001 18.3328 12.6751 18.3328H7.32508C5.00008 18.3328 4.92508 17.3161 4.83341 16.0078L4.29175 7.61621" stroke="white" stroke-width="1.5" stroke-linecap="round" stroke-linejoin="round"/>
<path d="M8.6084 13.75H11.3834" stroke="white" stroke-width="1.5" stroke-linecap="round" stroke-linejoin="round"/>
<path d="M7.91675 10.4165H12.0834" stroke="white" stroke-width="1.5" stroke-linecap="round" stroke-linejoin="round"/>
</svg>
