<svg width="23" height="23" viewBox="0 0 23 23" fill="none" xmlns="http://www.w3.org/2000/svg">
<path d="M11.4546 11.4545C14.0905 11.4545 16.2273 9.31769 16.2273 6.68178C16.2273 4.04588 14.0905 1.90906 11.4546 1.90906C8.81871 1.90906 6.68188 4.04588 6.68188 6.68178C6.68188 9.31769 8.81871 11.4545 11.4546 11.4545Z" stroke="white" stroke-width="1.43182" stroke-linecap="round" stroke-linejoin="round"/>
<path d="M18.3368 15.0245L14.9576 18.4036C14.824 18.5373 14.6999 18.7854 14.6713 18.9668L14.4899 20.2554C14.4231 20.7231 14.7477 21.0477 15.2154 20.9809L16.504 20.7995C16.6854 20.7709 16.9431 20.6468 17.0672 20.5132L20.4463 17.1341C21.0285 16.5518 21.3054 15.8741 20.4463 15.015C19.5967 14.1654 18.919 14.4422 18.3368 15.0245Z" stroke="white" stroke-width="1.43182" stroke-miterlimit="10" stroke-linecap="round" stroke-linejoin="round"/>
<path d="M17.8499 15.5114C18.1362 16.5423 18.938 17.3441 19.9689 17.6304" stroke="white" stroke-width="1.43182" stroke-miterlimit="10" stroke-linecap="round" stroke-linejoin="round"/>
<path d="M3.25488 21.0001C3.25488 17.306 6.92991 14.3182 11.4545 14.3182C12.4472 14.3182 13.4017 14.4614 14.2894 14.7287" stroke="white" stroke-width="1.43182" stroke-linecap="round" stroke-linejoin="round"/>
</svg>
